# xmcd
#
# Track frame offsets:
#	150
#	12640
#	27133
#	42801
#	58476
#	78679
#	97532
#	109602
#	126290
#	140638
#	155301
#	172144
#	186762
#	207787
#	222325
#	239810
#	255410
#	268193
#	282666
#	301249
#
# Disc length: 4229
#
# Revision: 3
# Processed by: cddbd v1.5.1PL0 Copyright (c) Steve Scherf et al.
# Submitted via: CDex 1.30
# Normalized: r1:DSETVAR1,TDELIM( - ),TSWAP
#
DISCID=2a108314
DTITLE=Various Artist - Halland's Country Hits Vol. II
DYEAR=2001
DGENRE=Country
TTITLE0=Reba McEntire - (You Lift Me) Up To Heaven
TTITLE1=Ronnie Milsap - Back On My Mind Again
TTITLE2=Ronnie Milsap - He Got You
TTITLE3=Ronnie Milsap - I Wouldn't Have Missed It For The World
TTITLE4=Ronnie Milsap - In Love
TTITLE5=Ronnie Milsap - Lost In The Fifties Tonight
TTITLE6=Ronnie Milsap - My Heart
TTITLE7=Ronnie Milsap - Smokey Mountain Rain
TTITLE8=Ronnie Milsap - Stranger Things Have Happened
TTITLE9=Ronnie Milsap - (There's) No Gettin' Over Me
TTITLE10=Lorrie Morgan - Dear Me
TTITLE11=Lorrie Morgan - Out Of Your Shoes
TTITLE12=Lorrie Morgan - Something In Red
TTITLE13=Gary Morris - Headed For A Heartache
TTITLE14=Michael Martin Murphy - I'm Gonna Miss You Girl
TTITLE15=Michael Martin Murphy - Talkin' To The Wrong Man
TTITLE16=Michael Martin Murphy - What's Forever For
TTITLE17=Juice Newton - Love's Been A Little Bit Hard On Me
TTITLE18=Juice Newton - The Sweetest Thing (I've Ever Known)
TTITLE19=Nitty Gritty Dirt Band - Modern Day Romance
EXTD=\nYEAR: 2001  ID3G:   2
EXTT0=
EXTT1=
EXTT2=
EXTT3=
EXTT4=
EXTT5=
EXTT6=
EXTT7=
EXTT8=
EXTT9=
EXTT10=
EXTT11=
EXTT12=
EXTT13=
EXTT14=
EXTT15=
EXTT16=
EXTT17=
EXTT18=
EXTT19=
PLAYORDER=
